<svg width="134" height="134" viewBox="0 0 134 134" fill="none" xmlns="http://www.w3.org/2000/svg">
<path d="M92 58.6666C73.6667 58.6666 58.6667 73.6666 58.6667 92C58.6667 110.333 73.6667 125.333 92 125.333C110.333 125.333 125.333 110.333 125.333 92C125.333 73.6666 110.333 58.6666 92 58.6666ZM104.5 88.25C103.667 88.6666 102.833 89.0833 102 89.0833C100.75 89.0833 99.5 88.25 98.6667 87.4166C97 85.3333 94.5 83.6666 92 83.6666C89.5 83.6666 87.8333 82 87.8333 79.5C87.8333 77 89.5 75.3333 92 75.3333C97.4166 75.3333 102.417 77.8333 105.75 82.4166C107 84.5 106.583 87 104.5 88.25Z" fill="#CECCD1"/>
<path d="M37.8333 58.6665C26.1667 58.6665 17 49.4999 17 37.8332C17 26.1665 26.1667 16.9999 37.8333 16.9999C49.5 16.9999 58.6667 26.1665 58.6667 37.8332C58.6667 49.4999 49.5 58.6665 37.8333 58.6665Z" fill="#CECCD1"/>
<path d="M23.25 108.667C12.8333 108.667 4.5 100.333 4.5 89.9166C4.5 79.5 12.8333 71.1666 23.25 71.1666C33.6667 71.1666 42 79.5 42 89.9166C42 100.333 33.6667 108.667 23.25 108.667Z" fill="#CECCD1"/>
<path d="M79.5 29.5C77 29.5 75.3333 27.8333 75.3333 25.3333V12.8333C75.3333 10.3333 77 8.66663 79.5 8.66663C82 8.66663 83.6666 10.3333 83.6666 12.8333V25.3333C83.6666 27.8333 82 29.5 79.5 29.5Z" fill="#CECCD1"/>
<path d="M108.667 46.1666H96.1667C93.6667 46.1666 92 44.4999 92 41.9999C92 39.4999 93.6667 37.8333 96.1667 37.8333H108.667C111.167 37.8333 112.833 39.4999 112.833 41.9999C112.833 44.4999 111.167 46.1666 108.667 46.1666Z" fill="#CECCD1"/>
<path d="M91.1667 34.5C89.9167 34.5 89.0833 34.0833 88.25 33.25C86.5833 31.5833 86.5833 29.0833 88.25 27.4166L97 18.6666C98.6667 17 101.167 17 102.833 18.6666C104.5 20.3333 104.5 22.8333 102.833 24.5L94.0833 33.25C93.25 34.0833 92.4167 34.5 91.1667 34.5Z" fill="#CECCD1"/>
</svg>
