<svg width="134" height="134" viewBox="0 0 134 134" fill="none" xmlns="http://www.w3.org/2000/svg">
<g clip-path="url(#clip0_30_12)">
<path d="M117 69.7776H83.6666V75.3332H117V69.7776Z" fill="#CECCD1"/>
<path d="M117 53.1112H66.9999V58.6668H117V53.1112Z" fill="#CECCD1"/>
<path d="M122.555 8.66675H11.4444C5.33311 8.66675 0.333252 13.6666 0.333252 19.7779V92.0001C0.333252 98.1111 5.33311 103.111 11.4444 103.111H22.5555V125.333L36.4442 111.445L50.333 125.333V103.111H122.555C128.666 103.111 133.667 98.1111 133.667 92.0001V19.7779C133.667 13.6666 128.666 8.66675 122.555 8.66675ZM44.7777 112L36.4442 103.666L28.1107 112V90.3333C30.8884 91.4444 33.6663 91.9998 36.4442 91.9998C39.2221 91.9998 41.9998 91.4444 44.7777 90.3333V112ZM36.4442 86.4445C28.6664 86.4445 22.5555 80.3336 22.5555 72.5558C22.5555 64.778 28.6667 58.667 36.4442 58.667C44.2217 58.667 50.333 64.778 50.333 72.5558C50.333 80.3336 44.222 86.4445 36.4442 86.4445ZM128.111 91.9998C128.111 95.3331 125.889 97.5554 122.555 97.5554H50.3332V85.8888C53.6666 82.5552 55.8888 77.5554 55.8888 72.5555C55.8888 62.0001 46.9999 53.1109 36.4442 53.1109C25.8885 53.1109 16.9996 61.9998 16.9996 72.5555C16.9996 78.1111 19.2218 82.5555 22.5552 85.8888V97.5554H11.4444C8.11103 97.5554 5.88881 94.7777 5.88881 91.9998V19.7779C5.88881 16.4445 8.11103 14.2223 11.4444 14.2223H122.555C125.889 14.2223 128.111 16.9999 128.111 19.7779V91.9998Z" fill="#CECCD1"/>
<path d="M117 36.4442H16.9999V41.9998H117V36.4442Z" fill="#CECCD1"/>
</g>
<defs>
<clipPath id="clip0_30_12">
<rect width="133.333" height="133.333" fill="white" transform="translate(0.333252 0.333252)"/>
</clipPath>
</defs>
</svg>
