<svg width="48" height="48" viewBox="0 0 48 48" fill="none" xmlns="http://www.w3.org/2000/svg">
<path d="M40.6948 0.422852H6.88304C5.1264 0.422852 3.44166 1.12068 2.19951 2.36283C0.957354 3.605 0.259521 5.28971 0.259521 7.04639V40.8581C0.259521 42.6149 0.957354 44.2996 2.19951 45.5417C3.44166 46.7837 5.1264 47.4817 6.88304 47.4817H22.2713V30.3052H16.4536V23.6052H22.2713V18.6699C22.2713 15.8729 23.0448 13.6993 24.5919 12.1552C26.1389 10.6082 28.236 9.83168 30.8859 9.83168C33.5389 9.83168 35.2565 9.93462 36.0418 10.1287V16.0934H32.5065C31.23 16.0934 30.3595 16.364 29.8918 16.9052C29.4271 17.4434 29.1948 18.2552 29.1948 19.3346V23.6052H35.8212L34.9389 30.3052H29.1948V47.4817H40.6948C42.4515 47.4817 44.1362 46.7837 45.3783 45.5417C46.6206 44.2996 47.3183 42.6149 47.3183 40.8581V7.04639C47.3183 5.28971 46.6206 3.605 45.3783 2.36283C44.1362 1.12068 42.4515 0.422852 40.6948 0.422852Z" fill="#F7E3B0"/>
</svg>
