<svg width="40" height="49" viewBox="0 0 40 49" fill="none" xmlns="http://www.w3.org/2000/svg">
<line x1="1.25561e-07" y1="48.0938" x2="40" y2="48.0938" stroke="#F7E3B0" stroke-width="4"/>
<path d="M20 45.7857C19.3232 45.7801 18.6551 45.6418 18.0384 45.3795C17.4218 45.1172 16.8702 44.7368 16.419 44.2626C10.5046 38.1703 0.555545 26.5798 0.555545 18.9188C0.481928 13.9998 2.4883 9.25446 6.13405 5.72485C9.7798 2.19523 14.7668 0.169941 20 0.09375C25.2331 0.169941 30.2202 2.19523 33.8659 5.72485C37.5117 9.25446 39.5181 13.9998 39.4444 18.9188C39.4444 26.5341 29.4954 38.0942 23.581 44.2778C23.1284 44.7493 22.5761 45.1268 21.9596 45.3865C21.343 45.6461 20.6756 45.782 20 45.7857ZM20 3.13988C15.6277 3.21996 11.4674 4.92553 8.43029 7.88302C5.39318 10.8405 3.72686 14.8088 3.79629 18.9188C3.79629 23.7012 9.41897 32.4132 18.8333 42.2369C18.9845 42.3843 19.1657 42.5016 19.3662 42.5817C19.5666 42.6617 19.7822 42.703 20 42.703C20.2178 42.703 20.4334 42.6617 20.6338 42.5817C20.8343 42.5016 21.0155 42.3843 21.1667 42.2369C30.581 32.4132 36.2037 23.7012 36.2037 18.9188C36.2731 14.8088 34.6068 10.8405 31.5697 7.88302C28.5326 4.92553 24.3723 3.21996 20 3.13988Z" fill="#F7E3B0"/>
<path d="M20.0001 27.5102C18.0772 27.5102 16.1975 26.9742 14.5987 25.9701C12.9999 24.9659 11.7537 23.5387 11.0179 21.8689C10.282 20.1991 10.0895 18.3616 10.4646 16.589C10.8398 14.8163 11.7657 13.188 13.1254 11.91C14.4851 10.6319 16.2174 9.7616 18.1033 9.40899C19.9893 9.05639 21.9441 9.23736 23.7206 9.92902C25.4971 10.6207 27.0155 11.792 28.0838 13.2948C29.1521 14.7976 29.7223 16.5644 29.7223 18.3718C29.7223 20.7954 28.698 23.1198 26.8747 24.8336C25.0514 26.5474 22.5786 27.5102 20.0001 27.5102ZM20.0001 12.2795C18.7181 12.2795 17.465 12.6368 16.3991 13.3063C15.3333 13.9757 14.5025 14.9272 14.0119 16.0404C13.5214 17.1536 13.393 18.3785 13.6431 19.5603C13.8932 20.7421 14.5105 21.8276 15.417 22.6797C16.3234 23.5317 17.4783 24.1119 18.7356 24.347C19.9929 24.582 21.2961 24.4614 22.4804 24.0003C23.6648 23.5392 24.677 22.7583 25.3892 21.7565C26.1014 20.7546 26.4815 19.5767 26.4815 18.3718C26.4815 16.756 25.7987 15.2064 24.5832 14.0639C23.3676 12.9214 21.7191 12.2795 20.0001 12.2795Z" fill="#F7E3B0"/>
</svg>
