<svg width="50" height="50" viewBox="0 0 50 50" fill="none" xmlns="http://www.w3.org/2000/svg">
<path d="M25 3.125C37.0605 3.125 46.875 12.9395 46.875 25C46.875 37.0605 37.0605 46.875 25 46.875C12.9395 46.875 3.125 37.0605 3.125 25C3.125 12.9395 12.9395 3.125 25 3.125ZM25 0C11.1938 0 0 11.1938 0 25C0 38.8062 11.1938 50 25 50C38.8062 50 50 38.8062 50 25C50 11.1938 38.8062 0 25 0ZM38.9374 33.3588L38.797 32.9315C38.4674 31.9489 37.381 30.9235 36.38 30.6488L32.6844 29.6387C31.6834 29.3671 30.2552 29.7333 29.5198 30.4688L28.1831 31.8055C23.3247 30.4901 19.5131 26.6785 18.2008 21.8201L19.5375 20.4834C20.2699 19.751 20.6361 18.3228 20.3646 17.3187L19.3573 13.623C19.0857 12.6221 18.0542 11.5356 17.0716 11.2061L16.6504 11.0656C15.6646 10.736 14.2578 11.0687 13.5254 11.8042L11.5234 13.8062C11.1664 14.1602 10.9375 15.1764 10.9375 15.1795C10.8703 21.5333 13.3606 27.6521 17.8528 32.1473C22.3328 36.6272 28.4303 39.1146 34.7626 39.0595C34.7962 39.0595 35.843 38.8367 36.2 38.4796L38.202 36.4776C38.9344 35.7482 39.2639 34.3414 38.9374 33.3588Z" fill="#F7E3B0"/>
</svg>
