<svg width="134" height="134" viewBox="0 0 134 134" fill="none" xmlns="http://www.w3.org/2000/svg">
<path d="M67 71.0928C67.1067 71.0816 67.2122 71.0612 67.3154 71.032C69.4335 71.595 71.6159 71.8802 73.8075 71.8803C77.7166 71.8875 81.5748 70.9938 85.0826 69.2686C88.5905 67.5434 91.6536 65.0331 94.0342 61.9324C96.4148 58.8318 98.0489 55.2243 98.8097 51.3899C99.5704 47.5556 99.4374 43.5975 98.4208 39.8228C98.3291 39.4797 98.1483 39.167 97.8968 38.9161C97.6453 38.6653 97.3321 38.4854 96.9888 38.3945C91.2382 36.8816 85.1394 37.4294 79.7504 39.9428C82.0069 33.9843 82.0651 27.4165 79.9146 21.4189C77.7642 15.4213 73.546 10.3868 68.0175 7.21949C67.7102 7.04149 67.3614 6.94775 67.0063 6.94775C66.6511 6.94775 66.3023 7.04149 65.995 7.21949C60.4597 10.3745 56.231 15.4001 54.0688 21.3933C51.9067 27.3865 51.9527 33.9543 54.1988 39.9166C48.8203 37.4258 42.742 36.887 37.0092 38.3928C36.6658 38.4837 36.3524 38.6636 36.1009 38.9144C35.8493 39.1652 35.6685 39.478 35.5767 39.8212C34.4205 44.1323 34.4179 48.6717 35.5693 52.9841C36.7206 57.2966 38.9854 61.2306 42.1366 64.3918C45.2877 67.5529 49.2146 69.8302 53.5233 70.9952C57.8321 72.1602 62.3715 72.172 66.6863 71.0295C66.7889 71.0593 66.8938 71.0805 67 71.0928ZM94.7917 42.0299C95.4802 45.3 95.393 48.6859 94.5371 51.9162C93.6812 55.1466 92.0804 58.1314 89.8629 60.6315C87.6455 63.1316 84.8731 65.0774 81.7681 66.3129C78.6631 67.5484 75.3118 68.0393 71.9829 67.7462L86.9467 52.7541C87.3261 52.3742 87.539 51.8592 87.5386 51.3223C87.5383 50.7855 87.3247 50.2707 86.9448 49.8914C86.5649 49.512 86.0499 49.2991 85.5131 49.2994C84.9762 49.2998 84.4615 49.5134 84.0821 49.8932L69.1163 64.8878C68.8171 61.5593 69.3018 58.207 70.5317 55.0996C71.7616 51.9922 73.7024 49.2161 76.1985 46.9939C78.6945 44.7717 81.6765 43.1652 84.9054 42.3032C88.1342 41.4412 91.5201 41.3476 94.7917 42.0299ZM67 11.3437C70.0305 13.31 72.5531 15.9651 74.3619 19.0922C76.1708 22.2192 77.2146 25.7297 77.4082 29.337C77.6019 32.9444 76.9398 36.5464 75.4761 39.8491C74.0123 43.1519 71.7884 46.0617 68.9859 48.3412V25.1537C68.9782 24.6223 68.7618 24.1154 68.3834 23.7423C68.005 23.3693 67.4949 23.1602 66.9636 23.1602C66.4322 23.1602 65.9222 23.3693 65.5437 23.7423C65.1653 24.1154 64.9489 24.6223 64.9413 25.1537V48.3332C62.144 46.0482 59.9265 43.1342 58.4698 39.829C57.013 36.5238 56.3583 32.921 56.5591 29.3146C56.7598 25.7082 57.8102 22.2004 59.6248 19.0772C61.4393 15.9541 63.9664 13.3042 67 11.3437ZM45.025 61.5716C42.5122 59.0512 40.665 55.9461 39.6494 52.5351C38.6337 49.1241 38.4814 45.5143 39.2063 42.0299C42.6843 41.3117 46.2861 41.4673 49.6893 42.4828C53.0924 43.4983 56.1905 45.3419 58.7063 47.8487C60.8211 49.9759 62.4665 52.5229 63.5362 55.3253C64.6059 58.1277 65.0762 61.1233 64.9167 64.1187L50.7158 49.8932C50.3365 49.5134 49.8217 49.2998 49.2849 49.2994C48.748 49.2991 48.233 49.512 47.8531 49.8914C47.4733 50.2707 47.2597 50.7855 47.2593 51.3223C47.259 51.8592 47.4719 52.3742 47.8513 52.7541L62.7196 67.6466C59.5028 68.0379 56.2392 67.6945 53.1743 66.6422C50.1094 65.59 47.3231 63.8563 45.025 61.5716Z" fill="#CECCD1"/>
<path d="M37.1251 127.05H63.3009C63.5666 127.05 63.8297 126.998 64.0752 126.897C64.3208 126.795 64.5439 126.646 64.7317 126.458C64.9196 126.271 65.0686 126.048 65.1701 125.802C65.2716 125.557 65.3237 125.293 65.3234 125.028V113.989C65.3372 108.65 64.2977 103.362 62.2644 98.4261C60.2311 93.4903 57.244 89.0041 53.4742 85.2244L39.0234 70.6665C37.9761 69.6109 36.6279 68.9051 35.1637 68.6457C33.6994 68.3864 32.1909 68.5862 30.8446 69.2178V42.2195C30.852 41.2286 30.6632 40.2461 30.2892 39.3285C29.9151 38.411 29.3631 37.5765 28.6651 36.8733C27.967 36.17 27.1367 35.6118 26.222 35.2309C25.3072 34.85 24.3261 34.6539 23.3353 34.6539C22.3444 34.6539 21.3633 34.85 20.4486 35.2309C19.5338 35.6118 18.7035 36.17 18.0055 36.8733C17.3074 37.5765 16.7554 38.411 16.3814 39.3285C16.0073 40.2461 15.8185 41.2286 15.8259 42.2195V73.2636C15.8297 77.5069 16.8741 81.6844 18.8676 85.4303L35.1009 115.792V125.026C35.1003 125.292 35.1523 125.556 35.2539 125.801C35.3554 126.047 35.5045 126.27 35.6926 126.458C35.8806 126.647 36.104 126.796 36.3498 126.897C36.5957 126.999 36.8591 127.05 37.1251 127.05ZM22.4421 83.5236C20.7576 80.3658 19.8745 76.8426 19.8705 73.2636V42.2195C19.8805 41.3071 20.2499 40.4355 20.8986 39.7939C21.5473 39.1523 22.4229 38.7924 23.3353 38.7924C24.2477 38.7924 25.1232 39.1523 25.7719 39.7939C26.4206 40.4355 26.7901 41.3071 26.8001 42.2195V74.4724C26.5922 75.6245 26.6696 76.81 27.0255 77.9253C27.3814 79.0407 28.005 80.0519 28.8417 80.8707L42.9817 94.8357C43.1688 95.0301 43.3928 95.1851 43.6407 95.2916C43.8886 95.398 44.1552 95.4538 44.425 95.4556C44.6947 95.4573 44.9621 95.4051 45.2114 95.3019C45.4606 95.1987 45.6867 95.0467 45.8763 94.8548C46.0659 94.6629 46.2151 94.435 46.3152 94.1845C46.4153 93.934 46.4643 93.666 46.4592 93.3963C46.4541 93.1265 46.3951 92.8606 46.2856 92.614C46.1761 92.3675 46.0184 92.1453 45.8217 91.9607L31.6867 77.9899C31.2494 77.5579 30.9475 77.0078 30.818 76.407C30.6886 75.8061 30.7371 75.1805 30.9578 74.6067C31.1784 74.033 31.5616 73.5361 32.0604 73.1769C32.5591 72.8176 33.1518 72.6116 33.7659 72.584C34.2061 72.5652 34.6455 72.6382 35.056 72.7983C35.4665 72.9584 35.8392 73.2021 36.1505 73.514L50.5996 88.0749C53.9962 91.4798 56.6877 95.5213 58.5198 99.9681C60.352 104.415 61.2888 109.179 61.2767 113.989V123.005H39.1455V115.287C39.1452 114.954 39.0642 114.627 38.9092 114.332L22.4421 83.5236Z" fill="#CECCD1"/>
<path d="M70.7046 127.05H96.875C97.1407 127.05 97.4039 126.998 97.6494 126.897C97.8949 126.795 98.118 126.646 98.3059 126.458C98.4938 126.271 98.6427 126.048 98.7443 125.802C98.8458 125.557 98.8979 125.293 98.8975 125.028V115.792L115.129 85.4303C117.122 81.6844 118.166 77.5068 118.17 73.2636V42.2195C118.178 41.2286 117.989 40.2461 117.615 39.3285C117.241 38.411 116.689 37.5765 115.991 36.8733C115.293 36.17 114.463 35.6118 113.548 35.2309C112.633 34.85 111.652 34.6539 110.661 34.6539C109.67 34.6539 108.689 34.85 107.774 35.2309C106.86 35.6118 106.029 36.17 105.331 36.8733C104.633 37.5765 104.081 38.411 103.707 39.3285C103.333 40.2461 103.144 41.2286 103.152 42.2195V69.217C102.291 68.8135 101.359 68.584 100.409 68.5415C99.406 68.5059 98.4061 68.676 97.4712 69.0414C96.5362 69.4069 95.686 69.96 94.973 70.6665L80.528 85.2253C76.7576 89.0044 73.7701 93.4906 71.7368 98.4265C69.7034 103.362 68.6643 108.651 68.6788 113.989V125.029C68.6786 125.295 68.7309 125.558 68.8326 125.803C68.9344 126.049 69.0837 126.272 69.2719 126.46C69.4602 126.648 69.6836 126.797 69.9295 126.898C70.1753 126.999 70.4387 127.051 70.7046 127.05ZM72.7267 113.989C72.7142 109.179 73.6509 104.415 75.4831 99.9678C77.3153 95.5211 80.0069 91.4795 83.4038 88.0749L97.8488 73.514C98.1427 73.2207 98.4915 72.9881 98.8753 72.8295C99.259 72.6709 99.6703 72.5895 100.086 72.5899C100.501 72.5902 100.912 72.6724 101.295 72.8316C101.679 72.9909 102.027 73.2241 102.321 73.518C102.614 73.8119 102.847 74.1607 103.005 74.5445C103.164 74.9282 103.245 75.3395 103.245 75.7547C103.244 76.17 103.162 76.5811 103.003 76.9646C102.844 77.3481 102.611 77.6965 102.317 77.9899L88.1767 91.9582C87.981 92.1431 87.8242 92.3652 87.7155 92.6116C87.6068 92.8579 87.5484 93.1235 87.5437 93.3927C87.5391 93.6619 87.5883 93.9293 87.6884 94.1792C87.7885 94.4292 87.9376 94.6566 88.1268 94.8481C88.3161 95.0397 88.5416 95.1914 88.7904 95.2946C89.0391 95.3977 89.3059 95.4502 89.5751 95.4488C89.8444 95.4474 90.1106 95.3922 90.3582 95.2865C90.6059 95.1808 90.8299 95.0267 91.0171 94.8332L105.161 80.8682C105.997 80.0483 106.619 79.0365 106.975 77.921C107.33 76.8055 107.407 75.62 107.2 74.4678V42.2178C107.21 41.3054 107.579 40.4339 108.228 39.7923C108.876 39.1506 109.752 38.7908 110.664 38.7908C111.577 38.7908 112.452 39.1506 113.101 39.7923C113.75 40.4339 114.119 41.3054 114.129 42.2178V73.2619C114.125 76.841 113.242 80.3642 111.558 83.5219L95.09 114.333C94.9352 114.627 94.8543 114.955 94.8542 115.287V123.006H72.7267V113.989Z" fill="#CECCD1"/>
</svg>
