<svg width="50" height="50" viewBox="0 0 50 50" fill="none" xmlns="http://www.w3.org/2000/svg">
<path fill-rule="evenodd" clip-rule="evenodd" d="M25.0149 0.00593081C28.4747 0.00593081 31.9347 -0.0100848 35.3943 0.0105207C38.6493 0.0299542 41.7063 0.772239 44.355 2.751C47.814 5.33513 49.5841 8.86496 49.9135 13.1243C50.0295 14.6233 49.9935 16.1354 49.9954 17.6415C50.0033 23.4822 49.9989 29.3231 49.9983 35.1639C49.9981 37.5495 49.6663 39.8786 48.6568 42.06C46.6091 46.485 43.0372 48.904 38.3244 49.7423C37.3418 49.9171 36.328 49.9824 35.3284 49.9854C28.4274 50.0057 21.5262 50.001 14.6251 49.9939C11.0365 49.9902 7.75437 49.0425 4.95745 46.7143C2.1158 44.3491 0.616284 41.2556 0.149829 37.6288C0.0693604 37.0032 0.0200929 36.3688 0.0195069 35.7384C0.0127687 28.4839 -0.0310302 21.229 0.0400636 13.9753C0.0789307 10.0121 1.39856 6.49821 4.34885 3.72942C6.79607 1.43293 9.77072 0.232982 13.0763 0.11555C17.0511 -0.025661 21.0349 0.0821027 25.0148 0.0821027C25.0148 0.0566632 25.0148 0.0312726 25.0149 0.00593081ZM24.9758 45.3793C28.3049 45.3793 31.6339 45.3927 34.9629 45.3701C35.8335 45.3642 36.7167 45.321 37.571 45.1665C40.834 44.5766 43.3148 42.9399 44.6149 39.7627C45.2755 38.1486 45.4912 36.4168 45.5193 34.7394C45.6285 28.232 45.567 21.7217 45.5593 15.2125C45.5584 14.5073 45.5508 13.7943 45.451 13.0985C45.0036 9.97409 43.6491 7.4132 40.7737 5.85588C39.1688 4.98669 37.4265 4.65852 35.6155 4.65793C28.6413 4.65588 21.6672 4.65383 14.693 4.66218C14.0628 4.66296 13.4269 4.69782 12.8033 4.78547C9.25124 5.2842 6.63489 7.03479 5.32551 10.4788C4.79709 11.8686 4.62825 13.3249 4.62795 14.8035C4.62693 21.6103 4.62038 28.4169 4.63689 35.2238C4.63889 36.0566 4.701 36.9013 4.85007 37.7196C5.51135 41.3502 7.53581 43.8456 11.1412 44.849C12.3427 45.1833 13.627 45.3309 14.8777 45.3561C18.2426 45.4236 21.6096 45.3791 24.9758 45.3793Z" fill="#F7E3B0"/>
<path fill-rule="evenodd" clip-rule="evenodd" d="M37.8859 24.9204C37.8828 32.0384 32.0751 37.828 24.9552 37.8106C17.8326 37.7934 12.0966 32.0442 12.0924 24.9186C12.0883 17.8008 17.8873 12.0108 25.0125 12.0186C32.0762 12.0262 37.8891 17.8519 37.8859 24.9204ZM24.9941 33.1635C29.5354 33.167 33.2757 29.4294 33.2679 24.8957C33.26 20.3935 29.5292 16.6556 25.0248 16.6373C20.49 16.6189 16.7515 20.3451 16.7419 24.8929C16.7323 29.4472 20.4366 33.1599 24.9941 33.1635Z" fill="#F7E3B0"/>
<path fill-rule="evenodd" clip-rule="evenodd" d="M38.3639 14.6159C36.7517 14.6015 35.4808 13.3114 35.486 11.6944C35.4911 10.0591 36.7938 8.77693 38.4387 8.78816C40.0326 8.79919 41.3315 10.1147 41.3267 11.7132C41.3218 13.3343 39.9988 14.6305 38.3639 14.6159Z" fill="#F7E3B0"/>
</svg>
