<svg width="27" height="34" viewBox="0 0 27 34" fill="none" xmlns="http://www.w3.org/2000/svg">
<line x1="1.74846e-07" y1="34" x2="27" y2="34" stroke="#F7E3B0" stroke-width="4"/>
<path d="M13.5 32.9062C13.0431 32.9023 12.5921 32.8029 12.1759 32.6146C11.7597 32.4262 11.3874 32.153 11.0828 31.8125C7.0906 27.4375 0.374978 19.1141 0.374978 13.6125C0.325286 10.0801 1.67959 6.67229 4.14047 4.13758C6.60135 1.60288 9.9676 0.148465 13.5 0.09375C17.0324 0.148465 20.3986 1.60288 22.8595 4.13758C25.3204 6.67229 26.6747 10.0801 26.625 13.6125C26.625 19.0812 19.9094 27.3828 15.9172 31.8234C15.6116 32.162 15.2389 32.4331 14.8227 32.6196C14.4065 32.806 13.956 32.9036 13.5 32.9062ZM13.5 2.28125C10.5487 2.33876 7.74048 3.56357 5.69043 5.68742C3.64038 7.81127 2.51561 10.661 2.56248 13.6125C2.56248 17.0469 6.35779 23.3031 12.7125 30.3578C12.8145 30.4637 12.9368 30.5479 13.0721 30.6054C13.2074 30.6629 13.353 30.6925 13.5 30.6925C13.647 30.6925 13.7925 30.6629 13.9278 30.6054C14.0631 30.5479 14.1854 30.4637 14.2875 30.3578C20.6422 23.3031 24.4375 17.0469 24.4375 13.6125C24.4843 10.661 23.3596 7.81127 21.3095 5.68742C19.2595 3.56357 16.4513 2.33876 13.5 2.28125Z" fill="#F7E3B0"/>
<path d="M13.5 19.7813C12.2021 19.7813 10.9333 19.3964 9.85407 18.6753C8.77488 17.9542 7.93374 16.9293 7.43704 15.7301C6.94034 14.531 6.81038 13.2115 7.0636 11.9385C7.31682 10.6655 7.94183 9.49615 8.85961 8.57836C9.7774 7.66058 10.9467 7.03557 12.2197 6.78235C13.4927 6.52913 14.8122 6.65909 16.0114 7.15579C17.2105 7.65249 18.2354 8.49363 18.9565 9.57282C19.6776 10.652 20.0625 11.9208 20.0625 13.2188C20.0625 14.9592 19.3711 16.6284 18.1404 17.8591C16.9097 19.0898 15.2405 19.7813 13.5 19.7813ZM13.5 8.84375C12.6347 8.84375 11.7888 9.10034 11.0694 9.58107C10.3499 10.0618 9.78916 10.7451 9.45803 11.5445C9.1269 12.3439 9.04026 13.2236 9.20907 14.0723C9.37788 14.9209 9.79456 15.7005 10.4064 16.3123C11.0183 16.9242 11.7978 17.3409 12.6465 17.5097C13.4951 17.6785 14.3748 17.5919 15.1742 17.2607C15.9737 16.9296 16.6569 16.3688 17.1377 15.6494C17.6184 14.9299 17.875 14.084 17.875 13.2188C17.875 12.0584 17.4141 10.9456 16.5936 10.1252C15.7731 9.30469 14.6603 8.84375 13.5 8.84375Z" fill="#F7E3B0"/>
</svg>
