<svg width="72" height="73" viewBox="0 0 72 73" fill="none" xmlns="http://www.w3.org/2000/svg">
<g clip-path="url(#clip0_11_3)">
<path d="M53.3294 28.9791C53.8106 29.3399 54.2883 29.6503 54.6868 29.8923C54.5193 30.1521 54.3384 30.4618 54.1585 30.8216C53.5356 32.0674 52.9294 33.9048 52.9294 36.3247C52.9294 37.7431 53.4773 38.7973 54.1952 39.7147C54.5441 40.1605 54.9436 40.5871 55.3364 41.0018C55.3758 41.0434 55.4152 41.0849 55.4545 41.1264C55.8166 41.5081 56.1787 41.8898 56.5407 42.3122C58.0814 44.1097 59.6706 46.6911 59.6706 52.0541C59.6706 57.2675 56.5301 62.0715 52.4318 65.6234C50.395 67.3887 48.1571 68.8114 46.0328 69.7893C43.8942 70.7737 41.9357 71.2776 40.4471 71.2776H29.2118C19.3355 71.2776 12.3096 67.9933 7.74907 63.1645C3.17506 58.3214 1 51.8387 1 45.3129C1 39.9089 2.6175 36.1674 4.20264 33.7896C4.99796 32.5967 5.78961 31.7406 6.37449 31.1882C6.37978 31.1833 6.38505 31.1783 6.39031 31.1733C6.49499 31.3739 6.6144 31.5946 6.74891 31.832C7.37208 32.9317 8.32556 34.3992 9.64935 35.8701C12.2983 38.8134 16.481 41.8188 22.4706 41.8188C25.9285 41.8188 28.3828 41.2465 30.0071 40.2719C31.6789 39.2688 32.4588 37.8372 32.4588 36.3247C32.4588 33.0206 30.958 31.0916 29.5047 29.2237C29.2967 28.9564 29.0897 28.6904 28.8882 28.4217C28.0724 27.334 27.2919 26.1568 26.7073 24.5978C26.1228 23.0391 25.7176 21.0534 25.7176 18.3482C25.7176 15.1662 26.7865 10.8943 29.4426 7.44113C32.0678 4.02823 36.2725 1.37059 42.6941 1.37059C50.1501 1.37059 54.3554 5.06747 56.7397 8.77659C57.9419 10.6469 58.6807 12.5247 59.1184 13.9389C59.3367 14.6443 59.4787 15.2297 59.5655 15.6347C59.5845 15.7235 59.6009 15.8036 59.6148 15.8743C57.5929 18.769 55.6216 19.7547 54.055 20.5379L54.044 20.5435C54.0154 20.5577 53.9867 20.5721 53.958 20.5864C53.1852 20.9723 52.34 21.3944 51.7237 22.0547C51.0193 22.8094 50.6824 23.7782 50.6824 25.0894C50.6824 25.9792 51.12 26.7597 51.6037 27.3642C52.0985 27.9827 52.7334 28.5321 53.3294 28.9791Z" fill="#F2CC73" stroke="#3C2A11" stroke-width="2"/>
<path d="M54.9384 22.3323C56.5329 21.5351 58.7001 20.4475 60.8856 17.5295C61.1636 17.7137 61.5046 17.9171 61.9087 18.1191C63.1545 18.742 64.9919 19.3482 67.4118 19.3482C68.592 19.3482 69.5301 19.3594 70.1852 19.5778C70.4842 19.6774 70.6419 19.7964 70.7303 19.9101C70.8104 20.0131 70.9021 20.1988 70.9058 20.5722C70.9057 20.572 70.9056 20.5719 70.9055 20.5719C70.9012 20.5709 70.8672 20.7065 70.6301 21.0061C70.3719 21.3325 69.9708 21.7315 69.4353 22.1833C68.3691 23.0829 66.8759 24.1038 65.2226 25.0682C63.5722 26.031 61.7921 26.9201 60.1621 27.5653C58.6367 28.1691 57.3309 28.5233 56.4099 28.5765C56.2995 28.5168 56.1518 28.4348 55.9781 28.3335C55.5783 28.1003 55.0512 27.7704 54.5294 27.3791C54.0019 26.9834 53.5133 26.5497 53.1654 26.1149C52.8064 25.6661 52.6824 25.3231 52.6824 25.0894C52.6824 24.1535 52.9072 23.7178 53.1858 23.4193C53.5297 23.0508 54.0487 22.7772 54.9384 22.3323Z" fill="#FE955A" stroke="#3C2A11" stroke-width="2"/>
<path d="M53.9294 16.1011C55.1704 16.1011 56.1765 15.0951 56.1765 13.8541C56.1765 12.6131 55.1704 11.607 53.9294 11.607C52.6884 11.607 51.6824 12.6131 51.6824 13.8541C51.6824 15.0951 52.6884 16.1011 53.9294 16.1011Z" fill="#3C2A11"/>
</g>
<defs>
<clipPath id="clip0_11_3">
<rect width="71.9059" height="71.907" fill="white" transform="translate(0 0.37059)"/>
</clipPath>
</defs>
</svg>
