<svg width="32" height="32" viewBox="0 0 32 32" fill="none" xmlns="http://www.w3.org/2000/svg">
<path d="M16 2C23.7188 2 30 8.28125 30 16C30 23.7188 23.7188 30 16 30C8.28125 30 2 23.7188 2 16C2 8.28125 8.28125 2 16 2ZM16 0C7.16406 0 0 7.16406 0 16C0 24.8359 7.16406 32 16 32C24.8359 32 32 24.8359 32 16C32 7.16406 24.8359 0 16 0ZM24.9199 21.3496L24.8301 21.0762C24.6191 20.4473 23.9238 19.7911 23.2832 19.6152L20.918 18.9688C20.2774 18.7949 19.3633 19.0293 18.8927 19.5L18.0372 20.3555C14.9278 19.5137 12.4884 17.0742 11.6485 13.9649L12.504 13.1094C12.9727 12.6406 13.2071 11.7266 13.0333 11.084L12.3887 8.71875C12.2149 8.07812 11.5547 7.38281 10.9258 7.17188L10.6562 7.082C10.0254 6.87106 9.125 7.08394 8.65625 7.55469L7.375 8.83594C7.1465 9.0625 7 9.71288 7 9.71488C6.957 13.7813 8.55081 17.6973 11.4258 20.5742C14.293 23.4414 18.1954 25.0333 22.2481 24.9981C22.2696 24.9981 22.9395 24.8555 23.168 24.6269L24.4492 23.3457C24.918 22.8789 25.1289 21.9785 24.9199 21.3496Z" fill="#F7E3B0"/>
</svg>
