<svg width="118" height="118" viewBox="0 0 118 118" fill="none" xmlns="http://www.w3.org/2000/svg">
<path d="M25.6667 42.3333C30.2625 42.3333 34 46.0708 34 50.6666C34 55.2625 30.2625 59 25.6667 59C21.0709 59 17.3334 55.2625 17.3334 50.6666C17.3334 46.0708 21.0709 42.3333 25.6667 42.3333ZM25.6667 38.1666C18.7625 38.1666 13.1667 43.7625 13.1667 50.6666C13.1667 57.5708 18.7625 63.1666 25.6667 63.1666C32.5708 63.1666 38.1667 57.5708 38.1667 50.6666C38.1667 43.7625 32.5708 38.1666 25.6667 38.1666ZM50.6667 21.5C55.2625 21.5 59 25.2375 59 29.8333C59 34.4291 55.2625 38.1666 50.6667 38.1666C46.0708 38.1666 42.3333 34.4291 42.3333 29.8333C42.3333 25.2375 46.0708 21.5 50.6667 21.5ZM50.6667 17.3333C43.7625 17.3333 38.1667 22.9291 38.1667 29.8333C38.1667 36.7375 43.7625 42.3333 50.6667 42.3333C57.5708 42.3333 63.1667 36.7375 63.1667 29.8333C63.1667 22.9291 57.5708 17.3333 50.6667 17.3333ZM84 29.8333C88.5958 29.8333 92.3333 33.5708 92.3333 38.1666C92.3333 42.7625 88.5958 46.5 84 46.5C79.4042 46.5 75.6667 42.7625 75.6667 38.1666C75.6667 33.5708 79.4042 29.8333 84 29.8333ZM84 25.6666C77.1 25.6666 71.5 31.2625 71.5 38.1666C71.5 45.0708 77.1 50.6666 84 50.6666C90.9 50.6666 96.5 45.0708 96.5 38.1666C96.5 31.2625 90.9 25.6666 84 25.6666ZM92.3333 63.1666C96.9292 63.1666 100.667 66.9041 100.667 71.4999C100.667 76.0958 96.9292 79.8333 92.3333 79.8333C87.7375 79.8333 84 76.0958 84 71.4999C84 66.9041 87.7375 63.1666 92.3333 63.1666ZM92.3333 59C85.4333 59 79.8333 64.5999 79.8333 71.4999C79.8333 78.3999 85.4333 83.9999 92.3333 83.9999C99.2333 83.9999 104.833 78.3999 104.833 71.4999C104.833 64.5999 99.2333 59 92.3333 59ZM59 4.83329C88.8667 4.83329 113.167 29.1333 113.167 59C113.167 85.9624 96.4167 113.167 59 113.167C52.3708 113.167 50.8125 111.746 50.4917 111.312C49.5083 109.971 50.7833 105.912 51.8042 102.654C53.5458 97.1083 55.525 90.8249 51.8042 85.7499C48.8417 81.7124 43.1833 79.8333 34 79.8333C5.85419 79.8333 4.85419 57.375 4.83335 54.8333C4.83335 27.7291 29.6375 4.83329 59 4.83329ZM59 0.666626C26.7833 0.666626 0.666687 25.6666 0.666687 54.8333C0.666687 54.8333 0.666687 83.9999 34 83.9999C71.5 83.9999 25.6667 117.333 59 117.333C96.5 117.333 117.333 91.2166 117.333 59C117.333 26.7833 91.2167 0.666626 59 0.666626Z" fill="#CECCD1"/>
</svg>
