<svg width="515" height="704" viewBox="0 0 515 704" fill="none" xmlns="http://www.w3.org/2000/svg">
<path fill-rule="evenodd" clip-rule="evenodd" d="M501.858 631.072C454.787 693.891 385.327 594.129 319.512 603.804C278.795 609.789 246.375 662.643 205.488 674.637C146.741 691.869 75.9589 722.993 35.0108 687.257C-4.91444 652.413 -7.81845 572.2 15.7077 509.011C38.6497 447.392 115.381 429.322 151.778 373.636C179.153 331.752 171.889 280.486 194.255 235.837C235.982 152.538 259.524 20.9487 337.948 1.9845C412.165 -15.9624 422.078 109.065 456.241 172.485C478.061 212.991 503.747 252.867 501.335 305.296C499.225 351.157 443.969 392.249 444.042 437.613C444.161 511.608 550.002 566.822 501.858 631.072Z" fill="url(#paint0_linear_43_99)"/>
<defs>
<linearGradient id="paint0_linear_43_99" x1="535.751" y1="157.298" x2="33.3417" y2="685.761" gradientUnits="userSpaceOnUse">
<stop stop-color="#7E7F7E"/>
<stop offset="0.0001" stop-color="#A2869D"/>
<stop offset="0.99" stop-color="#584F63"/>
</linearGradient>
</defs>
</svg>
