<svg width="420" height="465" viewBox="0 0 420 465" fill="none" xmlns="http://www.w3.org/2000/svg">
<g filter="url(#filter0_f_43_100)">
<path fill-rule="evenodd" clip-rule="evenodd" d="M32.0404 16.4577C114.129 -40.8937 161.886 92.2378 228.486 135.449C251.156 150.158 267.103 168.304 289.429 183.459C332.397 212.626 409.16 207.686 416.764 263.253C425.26 325.346 388.045 412.488 325.921 450.147C264.938 487.115 213.09 431.623 152.686 423.336C104.108 416.671 34.4687 447.167 11.4638 407.003C-11.4688 366.966 53.8651 307.105 56.5813 255.55C61.1327 169.164 -47.2006 71.8193 32.0404 16.4577Z" fill="url(#paint0_linear_43_100)" fill-opacity="0.7"/>
</g>
<defs>
<filter id="filter0_f_43_100" x="0.963623" y="0.343262" width="419.002" height="464.38" filterUnits="userSpaceOnUse" color-interpolation-filters="sRGB">
<feFlood flood-opacity="0" result="BackgroundImageFix"/>
<feBlend mode="normal" in="SourceGraphic" in2="BackgroundImageFix" result="shape"/>
<feGaussianBlur stdDeviation="1" result="effect1_foregroundBlur_43_100"/>
</filter>
<linearGradient id="paint0_linear_43_100" x1="-5.41864" y1="382.299" x2="343.755" y2="145.689" gradientUnits="userSpaceOnUse">
<stop stop-color="#EBC0FD"/>
<stop offset="0.645833" stop-color="#584F63"/>
<stop offset="0.99" stop-color="#393040" stop-opacity="0.93"/>
<stop offset="1" stop-color="#584F63" stop-opacity="0.58"/>
</linearGradient>
</defs>
</svg>
