<svg width="414" height="438" viewBox="0 0 414 438" fill="none" xmlns="http://www.w3.org/2000/svg">
<path fill-rule="evenodd" clip-rule="evenodd" d="M85.0833 396.249C67.236 358.447 122.666 312.158 105.568 274.011C88.4341 235.782 -0.403921 249.724 0.628924 207.817C1.659 166.023 80.2026 177.842 108.693 147.213C127.268 127.244 105.666 82.2934 129.578 69.1894C155.309 55.0888 186.885 100.702 214.001 89.5041C251.094 74.1854 254.996 -8.61501 293.832 1.35672C332.652 11.3244 296.84 84.9888 320.98 116.973C337.847 139.321 381.457 121.147 400.045 142.084C417.491 161.735 413.426 192.865 411.655 219.108C409.916 244.856 394.606 267.042 389.895 292.42C383.241 328.264 411.468 385.03 378.118 399.764C339.633 416.766 306.491 340.114 265.095 347.554C224.933 354.773 221.008 424.424 181.614 435.081C147.68 444.26 100.08 428.014 85.0833 396.249Z" fill="url(#paint0_linear_52_4)"/>
<defs>
<linearGradient id="paint0_linear_52_4" x1="426" y1="181" x2="167" y2="452.5" gradientUnits="userSpaceOnUse">
<stop stop-color="#49415C"/>
<stop offset="1" stop-color="#73587C"/>
</linearGradient>
</defs>
</svg>
