<svg width="431" height="393" viewBox="0 0 431 393" fill="none" xmlns="http://www.w3.org/2000/svg">
<path fill-rule="evenodd" clip-rule="evenodd" d="M330.6 72.3391C364.688 76.7144 410.199 87.1649 418.895 120.907C428.464 158.04 368.121 186.736 370.027 225.335C372.18 268.922 439.486 294.136 429.568 337.014C420.909 374.445 368.692 386.738 331.452 392.094C298.302 396.862 270.344 371.224 237.888 364.584C213.507 359.596 189.543 359.211 164.585 357.958C118.26 355.632 63.9151 382.563 27.7683 354.034C-5.0522 328.131 -1.12702 273.495 3.16648 230.558C7.29658 189.256 33.0777 154.769 51.4475 117.233C71.3057 76.657 71.9361 4.84634 115.742 0.53094C170.628 -4.87596 191.435 81.0676 243.143 98.3491C271.941 107.974 300.358 68.4575 330.6 72.3391Z" fill="url(#paint0_linear_55_19)"/>
<defs>
<linearGradient id="paint0_linear_55_19" x1="29.6197" y1="117.272" x2="425.774" y2="347.535" gradientUnits="userSpaceOnUse">
<stop stop-color="#655275"/>
<stop offset="1" stop-color="#6D5C85"/>
</linearGradient>
</defs>
</svg>
