<svg width="422" height="438" viewBox="0 0 422 438" fill="none" xmlns="http://www.w3.org/2000/svg">
<path fill-rule="evenodd" clip-rule="evenodd" d="M269.5 31.9701C316.418 23.7941 379.596 -23.3269 408.84 14.5389C444.857 61.1762 396.218 129.007 389.807 187.749C387.217 211.481 387.107 234.367 382.298 257.745C378.336 277.007 371.228 294.468 364.089 312.777C355.72 334.243 350.483 356.548 336.621 374.899C317.767 399.858 300.623 438.504 269.5 437.995C238.175 437.483 231.503 387.126 203.624 372.725C173.41 357.118 135.004 369.958 105.39 353.224C63.5027 329.555 -3.47025 306.001 0.14015 257.745C3.89475 207.561 88.2118 209.792 119.081 170.231C143.502 138.933 126.267 85.5244 155.457 58.6938C184.792 31.7302 230.376 38.788 269.5 31.9701Z" fill="url(#paint0_linear_54_13)"/>
<defs>
<linearGradient id="paint0_linear_54_13" x1="336" y1="384" x2="122.5" y2="70" gradientUnits="userSpaceOnUse">
<stop stop-color="#4A3A57"/>
<stop offset="1" stop-color="#56507A"/>
</linearGradient>
</defs>
</svg>
