<svg width="423" height="515" viewBox="0 0 423 515" fill="none" xmlns="http://www.w3.org/2000/svg">
<path fill-rule="evenodd" clip-rule="evenodd" d="M181.187 12.9864C223.579 46.2221 182.513 132.747 231.46 157.276C276.839 180.017 333.855 83.0639 375.958 110.594C411.598 133.897 320.971 182.562 330.138 221.799C339.112 260.206 409.834 265.18 420.941 303.116C430.785 336.736 403.26 370.933 382.304 399.963C360.45 430.236 331.606 455.86 297.433 474.207C261.917 493.276 214.138 530.55 181.187 507.942C134.286 475.763 159.841 401.14 126.545 356.958C112.962 338.935 77.91 354.586 57.2809 343.527C34.0046 331.049 10.8669 313.822 2.34353 290.373C-6.20094 266.867 11.3613 242.228 11.4534 217.451C11.5727 185.356 -4.92679 153.961 2.96705 122.692C12.3131 85.6703 26.0675 44.4158 60.4846 23.23C94.454 2.31975 150.092 -11.3926 181.187 12.9864Z" fill="url(#paint0_linear_56_30)"/>
<defs>
<linearGradient id="paint0_linear_56_30" x1="0" y1="257.5" x2="423" y2="257.5" gradientUnits="userSpaceOnUse">
<stop stop-color="#524A6B"/>
<stop offset="1" stop-color="#695877"/>
</linearGradient>
</defs>
</svg>
