<svg width="574" height="663" viewBox="0 0 574 663" fill="none" xmlns="http://www.w3.org/2000/svg">
<g filter="url(#filter0_f_71_79)">
<path fill-rule="evenodd" clip-rule="evenodd" d="M171.786 40.3788C210.041 45.0461 244.541 85.1494 281.945 80.2185C331.501 73.6856 362.6 -14.5261 410.237 8.94441C455.881 31.4333 419.442 117.493 448.578 162.318C475.161 203.214 542.631 199.024 562.769 243.606C581.689 285.492 555.916 331.371 543.786 373.096C532.438 412.131 522.318 454.367 493.955 480.306C466.343 505.559 417.149 489.108 389.445 514.247C347.807 552.029 354.624 656.653 298.013 658.106C244.305 659.483 225.292 567.412 190.423 519.352C167.753 488.107 152.463 452.816 127.724 423.402C100.571 391.117 56.6324 376.363 37.9623 338.081C18.7249 298.635 26.888 253.634 23.9379 210.589C20.1721 155.643 -15.0408 86.1587 18.0829 48.0252C52.2718 8.66528 119.411 33.9886 171.786 40.3788Z" fill="url(#paint0_linear_71_79)"/>
</g>
<defs>
<filter id="filter0_f_71_79" x="0.00424576" y="0.98291" width="573.487" height="661.138" filterUnits="userSpaceOnUse" color-interpolation-filters="sRGB">
<feFlood flood-opacity="0" result="BackgroundImageFix"/>
<feBlend mode="normal" in="SourceGraphic" in2="BackgroundImageFix" result="shape"/>
<feGaussianBlur stdDeviation="2" result="effect1_foregroundBlur_71_79"/>
</filter>
<linearGradient id="paint0_linear_71_79" x1="64.1531" y1="395.17" x2="533.389" y2="179.639" gradientUnits="userSpaceOnUse">
<stop offset="0.292021" stop-color="#3C2F5A"/>
<stop offset="1" stop-color="#6D5C85"/>
</linearGradient>
</defs>
</svg>
