<svg width="511" height="481" viewBox="0 0 511 481" fill="none" xmlns="http://www.w3.org/2000/svg">
<path fill-rule="evenodd" clip-rule="evenodd" d="M154.938 83.9315C188.166 71.1918 190.078 9.12295 224.986 1.61267C256.893 -5.25171 301.314 15.4911 316.867 49.094C336.358 91.2042 288.654 140.926 308.807 182.71C324.66 215.581 374.239 201.046 401.216 223.985C443.903 260.281 499.843 296.882 509.597 353.442C517.882 401.485 483.318 452.994 443.588 469.694C399.683 488.148 348.333 439.312 300.136 441.483C269.219 442.875 249.064 487.32 218.14 479.847C186.24 472.139 165.136 434.66 146.276 404.303C131.113 379.895 139.55 343.977 120.604 322.85C96.1112 295.536 51.2193 302.512 28.736 273.227C6.29718 244 -1.99024 202.874 0.804027 166.806C3.67576 129.739 14.7833 86.777 44.4152 70.8446C76.6531 53.511 120.806 97.0183 154.938 83.9315Z" fill="url(#paint0_linear_71_80)"/>
<defs>
<linearGradient id="paint0_linear_71_80" x1="518.5" y1="145" x2="60" y2="327.5" gradientUnits="userSpaceOnUse">
<stop stop-color="#886A83"/>
<stop offset="1" stop-color="#524A6B"/>
</linearGradient>
</defs>
</svg>
