<svg width="459" height="691" viewBox="0 0 459 691" fill="none" xmlns="http://www.w3.org/2000/svg">
<g filter="url(#filter0_d_22_29)">
<path fill-rule="evenodd" clip-rule="evenodd" d="M22.0917 246.476C55.231 192.829 137.534 201.905 190.588 167.824C229.932 142.551 251.394 98.0349 291.249 73.5766C341.811 42.548 399.605 -19.1362 452.948 6.81953C510.768 34.9529 487.428 128.579 519.19 184.487C540.514 222.023 595.202 235.462 606.511 277.126C617.829 318.826 603.088 366.112 578.046 401.324C555.068 433.633 494.905 424.411 476.713 459.637C444.651 521.72 494.95 616.221 442.957 662.901C400.613 700.917 323.489 671.678 276.849 639.075C231.775 607.568 244.046 531.053 202.611 494.895C155.433 453.724 68.4667 475.764 31.6573 425.109C-4.00387 376.035 -9.78922 298.086 22.0917 246.476Z" fill="url(#paint0_linear_22_29)"/>
</g>
<defs>
<filter id="filter0_d_22_29" x="0.220581" y="0.597351" width="617.157" height="690.269" filterUnits="userSpaceOnUse" color-interpolation-filters="sRGB">
<feFlood flood-opacity="0" result="BackgroundImageFix"/>
<feColorMatrix in="SourceAlpha" type="matrix" values="0 0 0 0 0 0 0 0 0 0 0 0 0 0 0 0 0 0 127 0" result="hardAlpha"/>
<feOffset dx="3" dy="6"/>
<feGaussianBlur stdDeviation="2"/>
<feComposite in2="hardAlpha" operator="out"/>
<feColorMatrix type="matrix" values="0 0 0 0 0.258824 0 0 0 0 0.227451 0 0 0 0 0.278431 0 0 0 1 0"/>
<feBlend mode="normal" in2="BackgroundImageFix" result="effect1_dropShadow_22_29"/>
<feBlend mode="normal" in="SourceGraphic" in2="effect1_dropShadow_22_29" result="shape"/>
</filter>
<linearGradient id="paint0_linear_22_29" x1="215.814" y1="637.187" x2="396.097" y2="-10.0862" gradientUnits="userSpaceOnUse">
<stop stop-color="#BBB7C0"/>
<stop offset="1" stop-color="#85647F"/>
</linearGradient>
</defs>
</svg>
