<svg width="563" height="647" viewBox="0 0 563 647" fill="none" xmlns="http://www.w3.org/2000/svg">
<path fill-rule="evenodd" clip-rule="evenodd" d="M140.629 485.344C117.809 448.495 41.7664 465.731 20.4599 427.872C-2.08447 387.813 -10.8243 326.498 24.7967 279.522C62.0977 230.329 142.71 244.006 190.873 203.134C243.371 158.582 246.434 78.3774 304.633 42.045C363.245 5.45443 447.043 -15.0155 490.677 15.972C537.913 49.5186 501.664 134.334 515.526 191.818C524.181 227.71 550.562 253.014 556.737 289.911C563.581 330.801 565.572 372.997 553.314 417.591C538.695 470.773 531.11 537.796 479.321 571.546C425.858 606.386 370.25 562.33 311.694 575.048C256.968 586.934 194.95 664.207 153.283 642.357C107.462 618.329 166.938 527.829 140.629 485.344Z" fill="url(#paint0_linear_81_12)"/>
<defs>
<linearGradient id="paint0_linear_81_12" x1="499.408" y1="556.34" x2="175.379" y2="142.484" gradientUnits="userSpaceOnUse">
<stop stop-color="#6D5C85"/>
<stop offset="1" stop-color="#825B7B"/>
</linearGradient>
</defs>
</svg>
