<svg width="429" height="614" viewBox="0 0 429 614" fill="none" xmlns="http://www.w3.org/2000/svg">
<path fill-rule="evenodd" clip-rule="evenodd" d="M-119.168 409.767C-122.03 374.192 -71.4079 346.234 -79.6601 311.511C-92.6936 256.668 -170.831 230.392 -175.154 174.189C-178.726 127.743 -134.483 89.0692 -99.0976 58.7724C-63.3576 28.1716 -19.0678 -4.20299 27.7511 0.460758C77.7249 5.43879 105.798 62.5519 151.34 83.7191C183.656 98.7388 228.871 81.415 254.716 105.949C281.595 131.465 263.902 181.56 285.86 211.416C309.92 244.13 360.955 247.998 383.851 281.536C408.723 317.967 444.968 371.285 419.676 407.425C388.942 451.343 316.9 431.844 266.293 449.517C240.442 458.545 211.999 465.795 193.845 486.294C162.399 521.798 167.825 588.636 125.01 609.039C89.5108 625.955 48.3042 591.767 14.4345 571.787C-17.1535 553.154 -41.3927 525.411 -64.725 497.116C-86.7933 470.354 -116.385 444.343 -119.168 409.767Z" fill="url(#paint0_linear_30_63)"/>
<defs>
<linearGradient id="paint0_linear_30_63" x1="222.792" y1="572.413" x2="6.38509" y2="-2.50453" gradientUnits="userSpaceOnUse">
<stop stop-color="#CECCD1" stop-opacity="0.82"/>
<stop offset="1" stop-color="#423A47"/>
</linearGradient>
</defs>
</svg>
