<svg width="417" height="592" viewBox="0 0 417 592" fill="none" xmlns="http://www.w3.org/2000/svg">
<path fill-rule="evenodd" clip-rule="evenodd" d="M359.305 0.75591C410.38 9.39038 431.255 73.683 460.535 116.414C480.746 145.91 485.597 182.65 504.667 212.896C520.272 237.646 545.054 254.189 562.305 277.822C584.139 307.734 604.826 337.524 620.224 371.204C643.369 421.833 698.545 475.734 676.061 526.66C654.898 574.597 580.629 567.833 529.133 577.529C489.302 585.029 449.388 575.915 408.871 576.97C374.955 577.853 342.324 583.653 308.399 583.275C268.942 582.836 213.404 607.468 191.639 574.553C164.825 534.005 241.816 466.001 207.85 431.223C158.163 380.347 30.9175 446.584 2.84425 381.246C-20.4107 327.122 105.57 320.475 139.609 272.397C161.329 241.719 140.255 195.593 157.817 162.36C176.382 127.228 210.599 104.262 241.596 79.4012C278.813 49.5508 312.263 -7.19673 359.305 0.75591Z" fill="url(#paint0_linear_30_64)"/>
<defs>
<linearGradient id="paint0_linear_30_64" x1="0" y1="295.858" x2="681.341" y2="295.858" gradientUnits="userSpaceOnUse">
<stop stop-color="#584F63"/>
<stop offset="1" stop-color="#FBC2EB"/>
</linearGradient>
</defs>
</svg>
