<svg width="430" height="556" viewBox="0 0 430 556" fill="none" xmlns="http://www.w3.org/2000/svg">
<path fill-rule="evenodd" clip-rule="evenodd" d="M49.2174 95.1939C98.1447 82.7178 114.776 -4.43951 165.057 0.176905C205.786 3.91631 181.632 87.8087 215.677 110.477C265.713 143.793 346.41 108 389.673 149.736C426.059 184.839 446.012 262.445 410.386 298.318C358.229 350.835 245.635 290.269 195.776 344.973C159.531 384.741 256.336 458.406 224.765 501.978C199.075 537.433 140.141 481.313 96.3658 482.173C61.869 482.851 30.4497 498.366 -3.09224 506.455C-54.6651 518.891 -120.469 582.299 -156.188 543.074C-196.978 498.28 -121.852 424.689 -131.947 364.952C-137.762 330.54 -195.065 321.115 -199.546 286.503C-203.994 252.142 -174.819 222.039 -154.036 194.316C-136.32 170.685 -105.861 160.38 -87.5951 137.171C-67.7842 111.998 -73.626 62.6264 -43.0016 53.2302C-10.3578 43.2144 16.1304 103.631 49.2174 95.1939Z" fill="#7E7F7E"/>
</svg>
