<svg width="122" height="123" viewBox="0 0 122 123" fill="none" xmlns="http://www.w3.org/2000/svg">
<path d="M79.7999 45.1332L39.5333 77.1332C38.7333 77.7999 38.4666 79.1332 39.2666 79.9332C39.6666 80.4665 40.1999 80.7332 40.8666 80.7332C41.2666 80.7332 41.7999 80.5999 42.0666 80.3332L82.3333 48.3332C83.1333 47.6666 83.3999 46.3332 82.5999 45.5332C81.9333 44.5999 80.7333 44.4666 79.7999 45.1332Z" fill="#CECCD1"/>
<path d="M50.3332 59.4C50.8666 59.4 51.3999 59.4 51.9332 59.2666C57.3999 58.4666 61.2666 53.2666 60.3332 47.6666C59.9332 45 58.4666 42.6 56.3332 41C54.1999 39.4 51.5332 38.7333 48.8666 39.1333C46.1999 39.5333 43.7999 41 42.1999 43.1333C40.5999 45.2666 39.9332 47.9333 40.3332 50.6C41.1332 55.8 45.5332 59.4 50.3332 59.4ZM49.3999 43.2666C49.6666 43.2666 50.0666 43.1333 50.3332 43.1333C53.2666 43.1333 55.9332 45.2666 56.3332 48.3333C56.8666 51.6666 54.5999 54.7333 51.2666 55.2666C47.9332 55.8 44.8666 53.5333 44.3332 50.2C43.7999 46.8666 46.1999 43.8 49.3999 43.2666Z" fill="#CECCD1"/>
<path d="M71.6667 66.0667C66.0667 66.0667 61.5333 70.6 61.5333 76.2C61.5333 81.8 66.0667 86.3333 71.6667 86.3333C77.2667 86.3333 81.8 81.8 81.8 76.2C81.6667 70.6 77.1333 66.0667 71.6667 66.0667ZM71.6667 82.2C68.3333 82.2 65.5333 79.4 65.5333 76.0666C65.5333 72.7333 68.3333 69.9333 71.6667 69.9333C75 69.9333 77.8 72.7333 77.8 76.0666C77.6667 79.5333 75 82.2 71.6667 82.2Z" fill="#CECCD1"/>
<path d="M121.533 61.3999C121.533 61.2666 121.667 61 121.667 60.8666C121.667 55.1333 115.667 52.2 110.467 49.6666C106.733 47.7999 102.733 45.7999 101.667 43.3999C100.6 40.8666 102.067 36.7333 103.533 32.8666C105.533 27.4 107.533 21.8 103.8 18.0666C100.067 14.3333 94.7333 15.6666 89.3999 16.8666C85.6666 17.6666 81.7999 18.6 79.2666 17.5333C76.7333 16.4666 74.5999 13.1333 72.5999 9.93328C69.6666 5.39995 66.4666 0.199951 60.8666 0.199951C55.2666 0.199951 52.0666 5.39995 49.2666 10.0666C47.2666 13.4 45.2666 16.7333 42.7333 17.8C40.1999 18.8666 36.1999 17.9333 32.4666 17C27.1333 15.6666 21.6666 14.3333 18.0666 17.9333C14.3333 21.6666 16.2 27.2666 17.9333 32.7333C19.2666 36.7333 20.4666 40.7333 19.3999 43.3999C18.3333 45.9333 14.5999 47.7999 11 49.6666C5.93328 52.3333 0.199951 55.2666 0.199951 60.8666C0.199951 61 0.199951 61.2666 0.333284 61.3999C0.333284 61.5333 0.199951 61.8 0.199951 61.9333C0.199951 67.5333 5.93328 70.6 11 73.1333C14.5999 74.9999 18.3333 76.8666 19.3999 79.3999C20.4666 81.9333 19.1333 86.0666 17.9333 90.0666C16.2 95.5333 14.3333 101.133 18.0666 104.867C21.7999 108.6 27.2666 107.133 32.4666 105.8C36.1999 104.867 40.1999 103.933 42.7333 105C45.2666 106.067 47.2666 109.4 49.2666 112.733C52.0666 117.4 55.2666 122.6 60.8666 122.6C66.4666 122.6 69.7999 117.4 72.5999 112.867C74.5999 109.667 76.7333 106.333 79.2666 105.267C81.9333 104.2 85.6666 105 89.3999 105.933C94.5999 107.133 100.067 108.467 103.8 104.733C107.533 101 105.533 95.3999 103.533 89.9333C102.067 85.9333 100.6 81.9333 101.667 79.3999C102.733 76.8666 106.6 74.9999 110.467 73.1333C115.667 70.4666 121.667 67.5333 121.667 61.9333C121.667 61.6666 121.533 61.5333 121.533 61.3999ZM108.6 69.5333C104.2 71.7999 99.5333 74.0666 97.9333 77.9333C96.1999 81.9333 98.0666 86.7333 99.6666 91.4C101.267 95.8 102.867 100.067 100.867 101.933C98.7333 104.067 94.5999 103.133 90.1999 102.067C85.7999 101 81.3999 100.067 77.5333 101.667C73.7999 103.267 71.3999 107 69.1333 110.733C66.5999 114.733 64.1999 118.6 60.7333 118.6C57.3999 118.6 54.9999 114.733 52.4666 110.6C50.1999 106.733 47.7999 102.867 44.0666 101.267C40.1999 99.6666 35.6666 100.733 31.2666 101.933C26.8666 103 22.7333 104.067 20.5999 102.067C18.6 100.067 19.9333 95.8 21.3999 91.4C22.8666 86.7333 24.4666 81.9333 22.7333 78.0666C21.1333 74.2 16.7333 71.9333 12.4666 69.7999C8.06662 67.5333 3.93328 65.3999 3.93328 62.0666C3.93328 61.9333 3.93328 61.6666 3.79995 61.5333C3.79995 61.4 3.93328 61.1333 3.93328 61C3.93328 57.7999 8.06662 55.6666 12.4666 53.2666C16.7333 51.1333 21.1333 48.8666 22.7333 45C24.3333 41 22.8666 36.2 21.3999 31.6666C19.9333 27.1333 18.6 22.8666 20.5999 21C22.7333 18.8666 26.8666 19.9333 31.2666 21.1333C35.6666 22.2 40.1999 23.4 44.0666 21.8C47.7999 20.2 50.1999 16.3333 52.4666 12.4666C54.9999 8.33329 57.2666 4.46662 60.7333 4.46662C64.1999 4.46662 66.5999 8.33329 69.1333 12.3333C71.5333 16.0666 73.9333 19.8 77.5333 21.4C81.3999 23 85.7999 21.9333 90.1999 21C94.5999 19.9333 98.7333 19 100.867 21.1333C102.867 23 101.267 27.2666 99.6666 31.6666C97.9333 36.3333 96.1999 41.1333 97.9333 45.1333C99.5333 49 104.2 51.2666 108.6 53.5333C113.267 55.8 117.533 58.0666 117.533 61.2666C117.533 61.4 117.533 61.6666 117.667 61.7999C117.667 61.9333 117.533 62.2 117.533 62.3333C117.667 65 113.267 67.2666 108.6 69.5333Z" fill="#CECCD1"/>
</svg>
