<svg width="126" height="127" viewBox="0 0 126 127" fill="none" xmlns="http://www.w3.org/2000/svg">
<path d="M99.0562 96.0791C99.5621 94.9949 99.8286 93.8145 99.8376 92.6181C99.8466 91.4217 99.5979 90.2374 99.1083 89.1458C98.1796 87.2057 96.5544 85.6864 94.5562 84.8904C92.558 84.0943 90.3333 84.0799 88.325 84.8499L69.7208 91.6208C69.3286 90.0659 68.496 88.6573 67.3232 87.5639C66.1503 86.4704 64.6868 85.7386 63.1083 85.4562L37.9771 81.0249C32.5747 80.0769 27.0181 80.5632 21.8625 82.4353L18.625 83.6249C15.5829 84.7388 12.7086 86.2664 10.0833 88.1645L9.6229 86.8999C9.5298 86.6426 9.38691 86.4061 9.20239 86.204C9.01787 86.0019 8.79533 85.8381 8.5475 85.722C8.29967 85.6059 8.03139 85.5398 7.758 85.5275C7.48461 85.5151 7.21146 85.5567 6.95415 85.6499L0.139572 88.1249L1.56249 92.0416L6.42707 90.2708L17.1146 119.646L10.2042 122.152L11.6292 126.067L20.5 122.84C20.7576 122.746 20.9943 122.603 21.1966 122.419C21.3988 122.234 21.5627 122.011 21.6788 121.763C21.7949 121.515 21.861 121.247 21.8732 120.973C21.8854 120.699 21.8435 120.426 21.75 120.169L21.0375 118.21L25.8396 116.465C28.8514 115.361 32.0629 114.908 35.2625 115.135L45.1458 115.821C48.9267 116.087 52.7211 115.552 56.2812 114.252L94.3646 100.392C95.3926 100.018 96.3366 99.4449 97.1418 98.7047C97.9471 97.9645 98.5977 97.0721 99.0562 96.0791ZM92.9312 96.4749L54.8479 110.337C51.8355 111.436 48.6257 111.888 45.4271 111.665L35.5417 110.979C31.7615 110.712 27.9675 111.246 24.4083 112.548L19.6042 114.296L11.5729 92.227C14.1367 90.228 16.9978 88.6429 20.0521 87.5291L23.2854 86.352C27.7507 84.7284 32.5642 84.3066 37.2437 85.1291L62.375 89.5603C62.9195 89.6491 63.4409 89.8451 63.9091 90.1369C64.3773 90.4288 64.7828 90.8107 65.1022 91.2605C65.4216 91.7103 65.6485 92.2191 65.7697 92.7573C65.8909 93.2955 65.904 93.8524 65.8083 94.3957C65.7125 94.939 65.5099 95.4579 65.212 95.9223C64.9142 96.3867 64.5271 96.7873 64.0732 97.1009C63.6193 97.4144 63.1077 97.6348 62.5679 97.749C62.0282 97.8633 61.4712 97.8693 60.9292 97.7666L38.3604 93.7874L37.6354 97.8916L60.2042 101.871C62.204 102.225 64.2643 101.833 65.9945 100.769C67.7247 99.7055 69.0046 98.0442 69.5917 96.0999L89.7417 88.7645C90.7616 88.3647 91.8934 88.3562 92.9192 88.7409C93.945 89.1255 94.7923 89.876 95.2979 90.8478C95.5418 91.3947 95.6656 91.9875 95.6609 92.5862C95.6562 93.1849 95.5232 93.7757 95.2708 94.3187C95.0426 94.8148 94.7184 95.2608 94.3168 95.6309C93.9152 96.001 93.4443 96.2879 92.9312 96.4749Z" fill="#CECCD1"/>
<path d="M115.083 37.9999H110.917V31.7499C110.917 31.1973 110.697 30.6674 110.306 30.2767C109.916 29.886 109.386 29.6665 108.833 29.6665H106.75V10.9165C106.75 10.364 106.53 9.83411 106.14 9.44341C105.749 9.0527 105.219 8.83321 104.667 8.83321V2.58321C104.667 2.03068 104.447 1.50077 104.056 1.11007C103.666 0.719371 103.136 0.499878 102.583 0.499878H90.0833C89.5308 0.499878 89.0009 0.719371 88.6102 1.11007C88.2195 1.50077 88 2.03068 88 2.58321V8.83321C87.4474 8.83321 86.9175 9.0527 86.5268 9.44341C86.1361 9.83411 85.9166 10.364 85.9166 10.9165V15.0832H64.9375C64.5718 15.0832 64.2125 15.1795 63.8958 15.3624L49.3312 23.779C49.0942 23.916 48.8865 24.0984 48.72 24.3156C48.5535 24.5329 48.4314 24.7809 48.3608 25.0454C48.2902 25.3099 48.2724 25.5857 48.3084 25.8571C48.3444 26.1285 48.4336 26.3901 48.5708 26.627L52.7375 33.8332C53.0138 34.3117 53.4688 34.6608 54.0025 34.8038C54.5362 34.9468 55.1048 34.872 55.5833 34.5957L67.725 27.5832H85.9166V29.6665H83.8333C83.2808 29.6665 82.7509 29.886 82.3602 30.2767C81.9695 30.6674 81.75 31.1973 81.75 31.7499V37.9999H77.5833C74.8217 38.0032 72.1741 39.1017 70.2213 41.0545C68.2685 43.0073 67.17 45.6549 67.1666 48.4165V83.8332H71.3333V65.0832H121.333V98.4165H100.5V102.583H121.333V119.25C121.333 119.802 121.114 120.332 120.723 120.723C120.332 121.114 119.803 121.333 119.25 121.333H73.4166C72.8641 121.333 72.3342 121.114 71.9435 120.723C71.5528 120.332 71.3333 119.802 71.3333 119.25V113H67.1666V119.25C67.1666 120.907 67.8251 122.497 68.9972 123.669C70.1693 124.841 71.759 125.5 73.4166 125.5H119.25C120.908 125.5 122.497 124.841 123.669 123.669C124.841 122.497 125.5 120.907 125.5 119.25V48.4165C125.497 45.6549 124.398 43.0073 122.445 41.0545C120.493 39.1017 117.845 38.0032 115.083 37.9999ZM92.1666 4.66654H100.5V8.83321H92.1666V4.66654ZM67.1666 23.4165C66.8009 23.4166 66.4417 23.5128 66.125 23.6957L55.3041 29.9457L53.2208 26.3436L65.5 19.2499H85.9166V23.4165H67.1666ZM90.0833 25.4999V12.9999H102.583V29.6665H90.0833V25.4999ZM85.9166 33.8332H106.75V37.9999H85.9166V33.8332ZM71.3333 60.9165V48.4165C71.3333 46.7589 71.9918 45.1692 73.1639 43.9971C74.336 42.825 75.9257 42.1665 77.5833 42.1665H115.083C116.741 42.1665 118.331 42.825 119.503 43.9971C120.675 45.1692 121.333 46.7589 121.333 48.4165V60.9165H71.3333Z" fill="#CECCD1"/>
<path d="M48.4167 73.4165C51.1783 73.4132 53.8259 72.3147 55.7787 70.3619C57.7315 68.4091 58.83 65.7615 58.8333 62.9999C58.8333 57.9999 51.5854 47.252 50.1312 45.1499C49.9293 44.8871 49.6696 44.6743 49.3723 44.5278C49.0751 44.3813 48.7481 44.3052 48.4167 44.3052C48.0853 44.3052 47.7583 44.3813 47.461 44.5278C47.1637 44.6743 46.904 44.8871 46.7021 45.1499C45.2479 47.252 38 57.9999 38 62.9999C38.0033 65.7615 39.1018 68.4091 41.0546 70.3619C43.0074 72.3147 45.655 73.4132 48.4167 73.4165ZM48.4167 50.0999C51.4146 54.7853 54.6667 60.7249 54.6667 62.9999C54.6667 64.6575 54.0082 66.2472 52.8361 67.4193C51.664 68.5914 50.0743 69.2499 48.4167 69.2499C46.7591 69.2499 45.1694 68.5914 43.9972 67.4193C42.8251 66.2472 42.1667 64.6575 42.1667 62.9999C42.1667 60.7249 45.4187 54.7853 48.4167 50.0999Z" fill="#CECCD1"/>
<path d="M8.83333 58.8333C8.83333 60.0694 9.19988 61.2778 9.88664 62.3056C10.5734 63.3334 11.5495 64.1345 12.6916 64.6075C13.8336 65.0805 15.0903 65.2043 16.3026 64.9632C17.515 64.722 18.6287 64.1267 19.5027 63.2527C20.3768 62.3786 20.9721 61.265 21.2132 60.0526C21.4544 58.8402 21.3306 57.5835 20.8576 56.4415C20.3845 55.2994 19.5834 54.3233 18.5556 53.6366C17.5278 52.9498 16.3195 52.5833 15.0833 52.5833C13.4257 52.5833 11.836 53.2417 10.6639 54.4138C9.49181 55.5859 8.83333 57.1757 8.83333 58.8333ZM15.0833 56.7499C15.4954 56.7499 15.8982 56.8721 16.2408 57.101C16.5834 57.3299 16.8504 57.6553 17.0081 58.036C17.1658 58.4167 17.207 58.8356 17.1266 59.2397C17.0462 59.6438 16.8478 60.015 16.5565 60.3064C16.2651 60.5978 15.8939 60.7962 15.4898 60.8766C15.0856 60.9569 14.6667 60.9157 14.2861 60.758C13.9054 60.6003 13.58 60.3333 13.3511 59.9907C13.1222 59.6481 13 59.2453 13 58.8333C13 58.2807 13.2195 57.7508 13.6102 57.3601C14.0009 56.9694 14.5308 56.7499 15.0833 56.7499Z" fill="#CECCD1"/>
<path d="M27.5833 44.2499C28.8195 44.2499 30.0278 43.8833 31.0556 43.1966C32.0834 42.5098 32.8845 41.5337 33.3576 40.3917C33.8306 39.2496 33.9544 37.9929 33.7132 36.7806C33.4721 35.5682 32.8768 34.4545 32.0027 33.5805C31.1287 32.7064 30.015 32.1111 28.8026 31.87C27.5903 31.6288 26.3336 31.7526 25.1916 32.2256C24.0495 32.6987 23.0734 33.4998 22.3866 34.5276C21.6999 35.5554 21.3333 36.7637 21.3333 37.9999C21.3333 39.6575 21.9918 41.2472 23.1639 42.4193C24.336 43.5914 25.9257 44.2499 27.5833 44.2499ZM27.5833 35.9165C27.9954 35.9165 28.3982 36.0387 28.7408 36.2677C29.0834 36.4966 29.3504 36.8219 29.5081 37.2026C29.6658 37.5833 29.707 38.0022 29.6266 38.4063C29.5462 38.8104 29.3478 39.1817 29.0565 39.473C28.7651 39.7644 28.3939 39.9628 27.9898 40.0432C27.5856 40.1236 27.1667 40.0823 26.7861 39.9246C26.4054 39.7669 26.08 39.4999 25.8511 39.1573C25.6222 38.8147 25.5 38.4119 25.5 37.9999C25.5 37.4473 25.7195 36.9174 26.1102 36.5267C26.5009 36.136 27.0308 35.9165 27.5833 35.9165Z" fill="#CECCD1"/>
<path d="M4.66665 31.7499H8.83332V27.5832H13V23.4165H8.83332V19.2499H4.66665V23.4165H0.499985V27.5832H4.66665V31.7499Z" fill="#CECCD1"/>
</svg>
